<?xml version="1.0" encoding="UTF-8"?>
<!DOCTYPE svg PUBLIC "-//W3C//DTD SVG 1.1//EN" "http://www.w3.org/Graphics/SVG/1.1/DTD/svg11.dtd">
<svg version="1.1" xmlns="http://www.w3.org/2000/svg" xmlns:xlink="http://www.w3.org/1999/xlink" x="0" y="0" width="353.325" height="90.819" viewBox="0, 0, 353.325, 90.819">
  <g id="Layer_1">
    <path d="M52.237,90.303 C50.452,84.106 45.766,78.908 40.645,75.141 C33.78,70.219 24.838,71.26 17.252,68.395 C11.073,63.804 16.983,58.739 21.138,55.595 C30.421,47.543 29.28,32.526 21.888,23.624 C16.95,17.243 6.507,12.96 1.358,11.144 C-6.402,3.383 22.042,-3.408 12.651,1.869 C9.475,3.229 6.221,5.77 12.086,7.302 C18.94,9.426 35.172,22.687 37.048,35.846 C38.488,42.829 36.542,50.727 33.954,57.217 C50.853,62.561 58.111,74.592 66.177,90.157 C66.144,90.13 62.353,90.388 52.237,90.303 z" fill="#000000" id="path3046"/>
    <path d="M83.943,90.802 C85.729,84.605 90.414,79.407 95.535,75.64 C102.4,70.719 111.342,71.759 118.928,68.894 C125.108,64.303 119.198,59.238 115.043,56.095 C105.76,48.042 106.9,33.026 114.292,24.123 C119.23,17.742 129.673,13.459 134.822,11.643 C142.583,3.883 114.138,-2.908 123.53,2.369 C126.705,3.729 129.96,6.269 124.094,7.801 C117.241,9.925 101.008,23.187 99.132,36.346 C97.692,43.328 99.638,51.226 102.226,57.717 C85.327,63.06 78.069,75.092 70.004,90.656 C70.036,90.63 73.827,90.888 83.943,90.802 z" fill="#000000" id="path3046-4"/>
    <path d="M150.013,29.334 Q150.877,30.918 152.005,33.246 Q153.133,35.574 154.357,38.286 Q155.581,40.998 156.781,43.83 Q157.981,46.662 159.037,49.158 Q160.093,46.662 161.293,43.83 Q162.493,40.998 163.717,38.286 Q164.941,35.574 166.069,33.246 Q167.197,30.918 168.061,29.334 L174.877,29.334 Q175.357,32.646 175.765,36.75 Q176.173,40.854 176.485,45.294 Q176.797,49.734 177.061,54.198 Q177.325,58.662 177.517,62.598 L170.221,62.598 Q170.077,57.75 169.837,52.038 Q169.597,46.326 169.117,40.518 Q168.253,42.534 167.197,44.982 Q166.141,47.43 165.109,49.878 Q164.077,52.326 163.117,54.558 Q162.157,56.79 161.485,58.374 L156.253,58.374 Q155.581,56.79 154.621,54.558 Q153.661,52.326 152.629,49.878 Q151.597,47.43 150.541,44.982 Q149.485,42.534 148.621,40.518 Q148.141,46.326 147.901,52.038 Q147.661,57.75 147.517,62.598 L140.221,62.598 Q140.413,58.662 140.677,54.198 Q140.941,49.734 141.253,45.294 Q141.565,40.854 141.973,36.75 Q142.381,32.646 142.861,29.334 z" fill="#000000"/>
    <path d="M193.405,57.606 Q194.461,57.606 195.421,57.558 Q196.381,57.51 196.957,57.414 L196.957,51.99 Q196.525,51.894 195.661,51.798 Q194.797,51.702 194.077,51.702 Q193.069,51.702 192.181,51.822 Q191.293,51.942 190.621,52.278 Q189.949,52.614 189.565,53.19 Q189.181,53.766 189.181,54.63 Q189.181,56.31 190.309,56.958 Q191.437,57.606 193.405,57.606 z M192.829,36.678 Q195.997,36.678 198.109,37.398 Q200.221,38.118 201.493,39.462 Q202.765,40.806 203.293,42.726 Q203.821,44.646 203.821,46.998 L203.821,61.878 Q202.285,62.214 199.549,62.67 Q196.813,63.126 192.925,63.126 Q190.477,63.126 188.485,62.694 Q186.493,62.262 185.053,61.278 Q183.613,60.294 182.845,58.71 Q182.077,57.126 182.077,54.822 Q182.077,52.614 182.965,51.078 Q183.853,49.542 185.341,48.63 Q186.829,47.718 188.749,47.31 Q190.669,46.902 192.733,46.902 Q194.125,46.902 195.205,47.022 Q196.285,47.142 196.957,47.334 L196.957,46.662 Q196.957,44.838 195.853,43.734 Q194.749,42.63 192.013,42.63 Q190.189,42.63 188.413,42.894 Q186.637,43.158 185.341,43.638 L184.429,37.878 Q185.053,37.686 185.989,37.47 Q186.925,37.254 188.029,37.086 Q189.133,36.918 190.357,36.798 Q191.581,36.678 192.829,36.678 z" fill="#000000"/>
    <path d="M216.397,49.782 Q216.397,53.094 217.885,55.11 Q219.373,57.126 222.301,57.126 Q223.261,57.126 224.077,57.054 Q224.893,56.982 225.421,56.886 L225.421,43.878 Q224.749,43.446 223.669,43.158 Q222.589,42.87 221.485,42.87 Q216.397,42.87 216.397,49.782 z M232.573,61.782 Q231.613,62.07 230.365,62.334 Q229.117,62.598 227.749,62.79 Q226.381,62.982 224.965,63.102 Q223.549,63.222 222.253,63.222 Q219.133,63.222 216.685,62.31 Q214.237,61.398 212.557,59.694 Q210.877,57.99 209.989,55.566 Q209.101,53.142 209.101,50.118 Q209.101,47.046 209.869,44.574 Q210.637,42.102 212.077,40.374 Q213.517,38.646 215.605,37.734 Q217.693,36.822 220.381,36.822 Q221.869,36.822 223.045,37.11 Q224.221,37.398 225.421,37.926 L225.421,26.502 L232.573,25.35 z" fill="#000000"/>
    <path d="M259.405,62.598 Q258.397,60.966 257.029,59.07 Q255.661,57.174 254.053,55.278 Q252.445,53.382 250.717,51.63 Q248.989,49.878 247.261,48.534 L247.261,62.598 L239.773,62.598 L239.773,29.334 L247.261,29.334 L247.261,41.91 Q250.189,38.838 253.141,35.502 Q256.093,32.166 258.637,29.334 L267.517,29.334 Q264.109,33.366 260.677,37.11 Q257.245,40.854 253.453,44.646 Q257.437,47.958 261.157,52.518 Q264.877,57.078 268.285,62.598 z" fill="#000000"/>
    <path d="M292.045,61.734 Q290.221,62.262 287.341,62.718 Q284.461,63.174 281.293,63.174 Q278.077,63.174 275.941,62.31 Q273.805,61.446 272.557,59.886 Q271.309,58.326 270.781,56.166 Q270.253,54.006 270.253,51.414 L270.253,37.35 L277.405,37.35 L277.405,50.55 Q277.405,54.006 278.317,55.542 Q279.229,57.078 281.725,57.078 Q282.493,57.078 283.357,57.006 Q284.221,56.934 284.893,56.838 L284.893,37.35 L292.045,37.35 z" fill="#000000"/>
    <path d="M304.861,49.782 Q304.861,53.094 306.349,55.11 Q307.837,57.126 310.765,57.126 Q311.725,57.126 312.541,57.054 Q313.357,56.982 313.885,56.886 L313.885,43.878 Q313.213,43.446 312.133,43.158 Q311.053,42.87 309.949,42.87 Q304.861,42.87 304.861,49.782 z M321.037,61.782 Q320.077,62.07 318.829,62.334 Q317.581,62.598 316.213,62.79 Q314.845,62.982 313.429,63.102 Q312.013,63.222 310.717,63.222 Q307.597,63.222 305.149,62.31 Q302.701,61.398 301.021,59.694 Q299.341,57.99 298.453,55.566 Q297.565,53.142 297.565,50.118 Q297.565,47.046 298.333,44.574 Q299.101,42.102 300.541,40.374 Q301.981,38.646 304.069,37.734 Q306.157,36.822 308.845,36.822 Q310.333,36.822 311.509,37.11 Q312.685,37.398 313.885,37.926 L313.885,26.502 L321.037,25.35 z" fill="#000000"/>
    <path d="M349.309,61.734 Q347.485,62.262 344.605,62.718 Q341.725,63.174 338.557,63.174 Q335.341,63.174 333.205,62.31 Q331.069,61.446 329.821,59.886 Q328.573,58.326 328.045,56.166 Q327.517,54.006 327.517,51.414 L327.517,37.35 L334.669,37.35 L334.669,50.55 Q334.669,54.006 335.581,55.542 Q336.493,57.078 338.989,57.078 Q339.757,57.078 340.621,57.006 Q341.485,56.934 342.157,56.838 L342.157,37.35 L349.309,37.35 z" fill="#000000"/>
  </g>
</svg>
