<svg xmlns="http://www.w3.org/2000/svg" xmlns:xlink="http://www.w3.org/1999/xlink" width="10" height="10" viewBox="0 0 10 10"><defs><path id="qv0va" d="M341.44 35.16a.22.22 0 0 1 0-.32l3.42-3.42a.5.5 0 0 0 .14-.32.5.5 0 0 0-.14-.32l-.64-.64a.5.5 0 0 0-.32-.14.41.41 0 0 0-.32.14l-3.42 3.42c-.1.1-.23.1-.32 0l-3.42-3.42a.5.5 0 0 0-.32-.14.5.5 0 0 0-.32.14l-.64.64a.5.5 0 0 0-.14.32c0 .09.05.22.14.32l3.42 3.42c.1.1.1.23 0 .32l-3.42 3.42a.5.5 0 0 0-.14.32c0 .1.05.23.14.32l.64.64c.09.1.22.14.32.14a.5.5 0 0 0 .32-.14l3.42-3.42c.1-.1.23-.1.32 0l3.42 3.42c.1.1.23.14.32.14a.5.5 0 0 0 .32-.14l.64-.64a.5.5 0 0 0 .14-.32.5.5 0 0 0-.14-.32z"/></defs><g><g transform="translate(-335 -30)"><use fill="#0014dd" xlink:href="#qv0va"/></g></g></svg>